<?xml version="1.0" encoding="utf-8"?>
<!-- Generator: Adobe Illustrator 21.0.0, SVG Export Plug-In . SVG Version: 6.00 Build 0)  -->
<svg version="1.1" id="Layer_1" xmlns="http://www.w3.org/2000/svg" xmlns:xlink="http://www.w3.org/1999/xlink" x="0px" y="0px"
	 viewBox="0 0 1366 768" style="enable-background:new 0 0 1366 768;" xml:space="preserve">
<style type="text/css">
	.st0{clip-path:url(#SVGID_2_);fill:#51B1F8;}
</style>
<g>
	<defs>
		<rect id="SVGID_1_" x="-489" y="-126" width="2307.7" height="2307.7"/>
	</defs>
	<clipPath id="SVGID_2_">
		<use xlink:href="#SVGID_1_"  style="overflow:visible;"/>
	</clipPath>
	<path class="st0" d="M265.1,426.5c-7.5,36.1-62.4,17.3-76.3,17.3c-13.9,0-76.3-27.8-93.7-86.7c-17.3-59,65.9-54.8,85-51.7
		C199.1,308.5,282.4,343.2,265.1,426.5"/>
	<path class="st0" d="M267.4,163c0,0-61.3-24.5-44,93.5c0,0,34.7,83.3,114.5,69.4c0,0,30.9-0.3,8.5-81.7
		C324,162.8,267.4,163,267.4,163"/>
	<path class="st0" d="M435.1,287.7c0,0-76.3-34.7-34.7-163.1c0,0,62.4-65.9,97.1,24.3c0,0,17.3,41.3,0,95.2
		C480.2,298.1,435.1,287.7,435.1,287.7"/>
	<path class="st0" d="M568.8,327.4c0,0-60.6-34.4,0-132.5c0,0,80.3-85.8,99.9,0c0,0,9.4,45.8-15,93.6
		C629.3,336.3,568.8,327.4,568.8,327.4"/>
	<path class="st0" d="M565.9,365.3c0,0-103.1-67.2-193.3-15.2c0,0-121.7,73.3-85.1,250c0,0,16.3,149,173.9,70.9
		c0,0,24.5-28.1,144.8-40.9c0,0,63.8-8.1,64.3-102.4C670.4,527.7,658.6,432.6,565.9,365.3 M559.9,506.3
		c-38.2,34.7-45.1,62.4-45.1,62.4c-13.9,27.8-52,20.8-76.3,6.9c-24.3-13.9-50.6-17.1-50.6-17.1c-47.1-10.2-46.6-52.2-46.6-52.2
		c-3.5-72.9,71.7-57.6,71.7-57.6c43.9,15.3,60.2-29.2,60.2-29.2c24.3-34.7,68.6-10.9,68.6-10.9C593.1,435.9,559.9,506.3,559.9,506.3
		"/>
	<path class="st0" d="M1045.8,448.7c0,0-48.8-88.1-145.9-50c-97.1,38.2-128.4,90.2-118,156.1c10.4,65.9,38.2,55.5,62.4,62.4
		c24.3,6.9,38.2-10.4,79.8,17.3c0,0,42,65.9,121.6,0C1045.8,634.6,1112,575,1045.8,448.7 M1024.1,526.5
		c-4.2,20.3-20.1,35.2-51.3,42.2c-31.2,6.9-34.7,13.9-34.7,13.9c-20.8,13.9-27.8,0-34.7-10.4c-6.9-10.4-27.8-27.8-27.8-27.8
		c-13.9-20.8-13.9-45.1-13.9-45.1c17.3-79.8,72.9-20.8,72.9-20.8c13.9,20.8,38.2,10.4,38.2,10.4
		C1014.4,482,1028.3,506.3,1024.1,526.5"/>
	<path class="st0" d="M1090.7,423c0,0,45-74.7,107.5-33.9c0,0,13.9,51.2-17.3,75.5C1180.9,464.6,1063,506.3,1090.7,423"/>
	<path class="st0" d="M1030.9,376.9c0,0-35.3-66.3,55.7-109c0,0,56.5-18.3,44.3,54.5C1130.8,322.4,1123.6,414.1,1030.9,376.9"/>
	<path class="st0" d="M945,357.1c0,0-66-8.9-17.4-124.1c0,0,43.2-47.9,63.2,32.9C990.9,265.9,1024.8,346.7,945,357.1"/>
	<path class="st0" d="M871,389.1c0,0-79,17.1-90.9-101.2c0,0,23.8-83,90.9,0C871,288,904.5,362.2,871,389.1"/>
	<path class="st0" d="M535.3,417.4c0,0-40.9-21.9-63.2,10c0,0-15,40.9-55.4,26.9c0,0-69.3-14.1-66.1,53.1c0,0-0.5,38.7,42.9,48.2
		c0,0,24.2,3,46.6,15.8c22.4,12.8,57.5,19.2,70.3-6.4c0,0,6.4-25.6,41.6-57.5C552,507.4,582.5,442.6,535.3,417.4"/>
	<path class="st0" d="M969.2,497.1c0,0-21.9,9.4-34.5-9.4c0,0-50.1-53.2-65.8,18.8c0,0,0,21.9,12.5,40.7c0,0,18.8,15.7,25.1,25.1
		c6.3,9.4,12.5,21.9,31.3,9.4c0,0,3.1-6.3,31.3-12.5c28.2-6.3,42.6-19.8,46.3-38.1C1019.3,512.8,1006.8,490.8,969.2,497.1"/>
</g>
</svg>
