<?xml version="1.0" encoding="utf-8"?>
<!-- Generator: Adobe Illustrator 21.0.0, SVG Export Plug-In . SVG Version: 6.00 Build 0)  -->
<svg version="1.1" id="Layer_1" xmlns="http://www.w3.org/2000/svg" xmlns:xlink="http://www.w3.org/1999/xlink" x="0px" y="0px"
	 viewBox="0 0 899.7 899.7" style="enable-background:new 0 0 899.7 899.7;" xml:space="preserve">
<style type="text/css">
	.st0{clip-path:url(#SVGID_2_);fill:#FFBE00;}
	.st1{display:none;}
	.st2{display:inline;}
	.st3{display:inline;clip-path:url(#SVGID_4_);}
	.st4{display:inline;clip-path:url(#SVGID_4_);fill:none;stroke:#000000;stroke-miterlimit:10;}
	.st5{display:inline;fill:#808080;}
	.st6{font-family:'MyriadPro-Regular';}
	.st7{font-size:66.9325px;}
	.st8{letter-spacing:2.4;}
	.st9{letter-spacing:3.2;}
	.st10{display:inline;clip-path:url(#SVGID_6_);fill:none;stroke:#808080;stroke-miterlimit:10;}
</style>
<g>
	<defs>
		<rect id="SVGID_1_" width="899.7" height="899.7"/>
	</defs>
	<clipPath id="SVGID_2_">
		<use xlink:href="#SVGID_1_"  style="overflow:visible;"/>
	</clipPath>
	<path class="st0" d="M294,215.4c-2.9,14.1-24.3,6.8-29.8,6.8s-29.8-10.8-36.5-33.8c-6.8-23,25.7-21.4,33.1-20.2
		C268.3,169.4,300.7,182.9,294,215.4"/>
	<path class="st0" d="M294.9,112.7c0,0-23.9-9.5-17.2,36.4c0,0,13.5,32.5,44.6,27c0,0,12.1-0.1,3.3-31.8
		C317,112.6,294.9,112.7,294.9,112.7"/>
	<path class="st0" d="M360.3,161.3c0,0-29.8-13.5-13.5-63.6c0,0,24.3-25.7,37.9,9.5c0,0,6.8,16.1,0,37.1
		C377.8,165.3,360.3,161.3,360.3,161.3"/>
	<path class="st0" d="M412.4,176.8c0,0-23.6-13.4,0-51.6c0,0,31.3-33.5,39,0c0,0,3.7,17.9-5.8,36.5
		C436,180.2,412.4,176.8,412.4,176.8"/>
	<path class="st0" d="M411.3,191.6c0,0-40.2-26.2-75.4-5.9c0,0-47.5,28.6-33.2,97.5c0,0,6.4,58.1,67.8,27.6c0,0,9.5-11,56.4-16
		c0,0,24.9-3.2,25.1-39.9C452,254.8,447.4,217.8,411.3,191.6 M408.9,246.5c-14.9,13.5-17.6,24.3-17.6,24.3
		c-5.4,10.8-20.3,8.1-29.8,2.7c-9.5-5.4-19.7-6.7-19.7-6.7c-18.4-4-18.1-20.4-18.1-20.4c-1.4-28.4,27.9-22.4,27.9-22.4
		c17.1,6,23.5-11.4,23.5-11.4c9.5-13.5,26.8-4.2,26.8-4.2C421.9,219.1,408.9,246.5,408.9,246.5"/>
	<path class="st0" d="M598.4,224c0,0-19-34.4-56.9-19.5c-37.9,14.9-50,35.2-46,60.9c4.1,25.7,14.9,21.6,24.3,24.3
		c9.5,2.7,14.9-4.1,31.1,6.8c0,0,16.4,25.7,47.4,0C598.4,296.5,624.2,273.3,598.4,224 M589.9,254.4c-1.6,7.9-7.8,13.7-20,16.4
		c-12.2,2.7-13.5,5.4-13.5,5.4c-8.1,5.4-10.8,0-13.5-4.1c-2.7-4.1-10.8-10.8-10.8-10.8c-5.4-8.1-5.4-17.6-5.4-17.6
		c6.8-31.1,28.4-8.1,28.4-8.1c5.4,8.1,14.9,4.1,14.9,4.1C586.1,237,591.5,246.5,589.9,254.4"/>
	<path class="st0" d="M615.9,214c0,0,17.5-29.1,41.9-13.2c0,0,5.4,20-6.7,29.4C651,230.3,605.1,246.5,615.9,214"/>
	<path class="st0" d="M592.5,196.1c0,0-13.8-25.9,21.7-42.5c0,0,22-7.1,17.3,21.2C631.5,174.8,628.7,210.6,592.5,196.1"/>
	<path class="st0" d="M559.1,188.3c0,0-25.7-3.5-6.8-48.4c0,0,16.8-18.7,24.7,12.8C576.9,152.8,590.2,184.3,559.1,188.3"/>
	<path class="st0" d="M530.2,200.8c0,0-30.8,6.7-35.4-39.4c0,0,9.3-32.4,35.4,0C530.2,161.4,543.3,190.3,530.2,200.8"/>
	<path class="st0" d="M399.3,211.9c0,0-15.9-8.6-24.7,3.9c0,0-5.8,16-21.6,10.5c0,0-27-5.5-25.8,20.7c0,0-0.2,15.1,16.7,18.8
		c0,0,9.5,1.2,18.2,6.2c8.7,5,22.4,7.5,27.4-2.5c0,0,2.5-10,16.2-22.4C405.8,246.9,417.7,221.7,399.3,211.9"/>
	<path class="st0" d="M568.5,242.9c0,0-8.5,3.7-13.4-3.7c0,0-19.5-20.8-25.6,7.3c0,0,0,8.5,4.9,15.9c0,0,7.3,6.1,9.8,9.8
		c2.4,3.7,4.9,8.5,12.2,3.7c0,0,1.2-2.4,12.2-4.9c11-2.4,16.6-7.7,18.1-14.8C588,249,583.1,240.5,568.5,242.9"/>
</g>
<g class="st1">
	<defs>
		<rect id="SVGID_3_" width="899.7" height="899.7"/>
	</defs>
	<clipPath id="SVGID_4_" class="st2">
		<use xlink:href="#SVGID_3_"  style="overflow:visible;"/>
	</clipPath>
	<path class="st3" d="M120.2,464.9c0,0-25.7-12.2-51.4,2.7l-5.4,4.1c0,0-4.1,1.4-6.8,0v-8.1c0,0-1.4-8.1-10.8-8.1h-22
		c0,0-7.8-1.4-10.5,6.8v201.5c0,0,1.4,6.8,6.8,6.8h30.7c0,0,4.5,0,7.2-8.1v-69.3l2.7-1c0,0,60.4,33.8,91.1-25.7
		C151.7,566.4,177,506.8,120.2,464.9 M108.7,542.7c-20.3,20.3-37.9,6.8-37.9,6.8c-27-24.3,5.4-40.6,5.4-40.6c9.5-2.7,18.4,0,18.4,0
		C119.7,521,108.7,542.7,108.7,542.7"/>
	<path class="st4" d="M120.2,464.9c0,0-25.7-12.2-51.4,2.7l-5.4,4.1c0,0-4.1,1.4-6.8,0v-8.1c0,0-1.4-8.1-10.8-8.1h-22
		c0,0-7.8-1.4-10.5,6.8v201.5c0,0,1.4,6.8,6.8,6.8h30.7c0,0,4.5,0,7.2-8.1v-69.3l2.7-1c0,0,60.4,33.8,91.1-25.7
		C151.7,566.4,177,506.8,120.2,464.9z M108.7,542.7c-20.3,20.3-37.9,6.8-37.9,6.8c-27-24.3,5.4-40.6,5.4-40.6c9.5-2.7,18.4,0,18.4,0
		C119.7,521,108.7,542.7,108.7,542.7z"/>
	<path class="st3" d="M290.6,560.9c0,0-4.1,2.7-6.8,5.4c0,0-4.1,2.7-8.1,2.7h-26.1c0,0-19.9,0-18.5-18.9h67.7
		c0,0,40.5-1.4,18.9-62.2c0,0-12.6-31.4-61.1-34c0,0-57.9-1.2-79.6,55.6c0,0-12.2,52.7,27,83.9c0,0,14.9,17.6,73,14.9
		c0,0,60.9-6.8,33.8-39.2C310.9,569.1,305.5,560.9,290.6,560.9 M242.6,504.8c8.1-6.8,24-2.3,24-2.3c21.3,16.6,0,22.6,0,22.6h-38.9
		C233.1,511.6,242.6,504.8,242.6,504.8"/>
	<path class="st4" d="M290.6,560.9c0,0-4.1,2.7-6.8,5.4c0,0-4.1,2.7-8.1,2.7h-26.1c0,0-19.9,0-18.5-18.9h67.7
		c0,0,40.5-1.4,18.9-62.2c0,0-12.6-31.4-61.1-34c0,0-57.9-1.2-79.6,55.6c0,0-12.2,52.7,27,83.9c0,0,14.9,17.6,73,14.9
		c0,0,60.9-6.8,33.8-39.2C310.9,569.1,305.5,560.9,290.6,560.9z M242.6,504.8c8.1-6.8,24-2.3,24-2.3c21.3,16.6,0,22.6,0,22.6h-38.9
		C233.1,511.6,242.6,504.8,242.6,504.8z"/>
	<path class="st3" d="M354.2,462.2v-36.9c0,0,2.7-14.4,12.2-15.8h28c0,0,12.6,1.4,11.2,14.9l0.1,37.9h33.5c0,0,13.7,1.4,13.7,16.2
		v7.8c0,0,1.4,17.9-13.5,17.9h-33.6l-2.2,43.2c0,0-0.7,16.3,12.8,16.3h14c0,0,10.3,1.4,11.7,16.2c0,0,1.4,18.9-13.5,25.7
		c0,0-66.3,12.2-71.7-43.3l-2.7-57.2l-13.5,0.4c0,0-12.2,0-12.2-18.9v-7.7c0,0-2.7-16.6,10.8-16.6H354.2z"/>
	<path class="st4" d="M354.2,462.2v-36.9c0,0,2.7-14.4,12.2-15.8h28c0,0,12.6,1.4,11.2,14.9l0.1,37.9h33.5c0,0,13.7,1.4,13.7,16.2
		v7.8c0,0,1.4,17.9-13.5,17.9h-33.6l-2.2,43.2c0,0-0.7,16.3,12.8,16.3h14c0,0,10.3,1.4,11.7,16.2c0,0,1.4,18.9-13.5,25.7
		c0,0-66.3,12.2-71.7-43.3l-2.7-57.2l-13.5,0.4c0,0-12.2,0-12.2-18.9v-7.7c0,0-2.7-16.6,10.8-16.6H354.2z"/>
	<path class="st3" d="M605.5,458.3h-17.2c0,0-11.7-0.8-14.4,7.3v6.8c0,0-8.1,2.7-10.8,0c0,0-33.8-41.9-82.5,18.9
		c0,0-33.8,54.1,10.8,93.3c0,0,29.8,28.4,62.2,16.2c0,0,6.8-1.4,14.9-10.8c0,0,4.1-1.4,4.1,2.7v4.2c0,0,3.9,10.2,13.4,9.7l17.5,0
		c0,0,17.7-1.8,17.7-19.4V475.9C621.3,475.9,618.1,459.1,605.5,458.3 M565.8,542.7c-16.2,20.3-33.8,9.8-33.8,9.8
		c-28.4-24,0-42.3,0-42.3c9.5-2.7,20.9,0,20.9,0C575.2,523.8,565.8,542.7,565.8,542.7"/>
	<path class="st4" d="M605.5,458.3h-17.2c0,0-11.7-0.8-14.4,7.3v6.8c0,0-8.1,2.7-10.8,0c0,0-33.8-41.9-82.5,18.9
		c0,0-33.8,54.1,10.8,93.3c0,0,29.8,28.4,62.2,16.2c0,0,6.8-1.4,14.9-10.8c0,0,4.1-1.4,4.1,2.7v4.2c0,0,3.9,10.2,13.4,9.7l17.5,0
		c0,0,17.7-1.8,17.7-19.4V475.9C621.3,475.9,618.1,459.1,605.5,458.3z M565.8,542.7c-16.2,20.3-33.8,9.8-33.8,9.8
		c-28.4-24,0-42.3,0-42.3c9.5-2.7,20.9,0,20.9,0C575.2,523.8,565.8,542.7,565.8,542.7z"/>
	<path class="st3" d="M756.5,464.2c0,0-12.2-18.9-27.1-6.8L714.6,471c0,0-10.8,8.1,4.1,33.8l54.1,90.6c0,0,6.8,13.5,23,13.5
		c0,0,12.2,5.4,28.4-14.9l52.7-89.3c0,0,13.5-17.6,4.1-36.5L864.5,454c0,0-17.4-12.7-28.2,8.9l-33.8,70.3l-5,9.5
		c0,0-3.2-0.1-4.5-4.1L756.5,464.2z"/>
	<path class="st4" d="M756.5,464.2c0,0-12.2-18.9-27.1-6.8L714.6,471c0,0-10.8,8.1,4.1,33.8l54.1,90.6c0,0,6.8,13.5,23,13.5
		c0,0,12.2,5.4,28.4-14.9l52.7-89.3c0,0,13.5-17.6,4.1-36.5L864.5,454c0,0-17.4-12.7-28.2,8.9l-33.8,70.3l-5,9.5
		c0,0-3.2-0.1-4.5-4.1L756.5,464.2z"/>
</g>
<text transform="matrix(1.2678 0 0 1 175.0923 772.035)" class="st1"><tspan x="0" y="0" class="st5 st6 st7 st8">t</tspan><tspan x="25" y="0" class="st5 st6 st7 st9">o </tspan><tspan x="82.7" y="0" class="st5 st6 st7 st9">li</tspan><tspan x="120.7" y="0" class="st5 st6 st7 st8">v</tspan><tspan x="155.5" y="0" class="st5 st6 st7 st9">e bet</tspan><tspan x="313.8" y="0" class="st5 st6 st7 st8">t</tspan><tspan x="338.8" y="0" class="st5 st6 st7 st9">e</tspan><tspan x="375.7" y="0" class="st5 st6 st7">r</tspan></text>
<g class="st1">
	<defs>
		<rect id="SVGID_5_" width="899.7" height="899.7"/>
	</defs>
	<clipPath id="SVGID_6_" class="st2">
		<use xlink:href="#SVGID_5_"  style="overflow:visible;"/>
	</clipPath>
	<path class="st10" d="M183,731.9v7.8h-6.4v4.5h6.4v17.7c0,3.8,0.8,6.7,2.9,8.4c1.8,1.6,4.6,2.5,8.1,2.5c2.9,0,5.2-0.3,6.6-0.8
		l-0.3-4.4c-0.9,0.2-2.4,0.4-4.3,0.4c-4.2,0-5.6-2.3-5.6-6.3v-17.5H201v-4.5h-10.7v-9.3L183,731.9z"/>
	<path class="st10" d="M230.3,743.3c8.8,0,12.3,7,12.3,12.4c0,7.3-5.3,12.6-12.5,12.6c-7.3,0-12.5-5.4-12.5-12.4
		C217.7,749.7,221.5,743.3,230.3,743.3z M230.5,738.9c-11.4,0-20.4,6.4-20.4,17.2c0,10.2,8.6,16.7,19.7,16.7
		c9.9,0,20.4-5.2,20.4-17.2C250.3,745.7,242.3,738.9,230.5,738.9z"/>
	<rect x="286.2" y="724.5" class="st10" width="7.5" height="47.5"/>
	<path class="st10" d="M314.2,726.9c-2.7,0-4.7,1.6-4.7,3.7c0,2,1.9,3.6,4.5,3.6c3,0,4.8-1.6,4.8-3.6
		C318.8,728.5,317,726.9,314.2,726.9z M317.9,772v-32.4h-7.5V772H317.9z"/>
	<path class="st10" d="M329.4,739.6l15.6,32.4h7.1l16.1-32.4h-7.8l-8,18.2c-1.4,2.9-2.5,5.6-3.5,8.3h-0.3c-0.8-2.7-2-5.4-3.3-8.3
		l-8.1-18.2H329.4z"/>
	<path class="st10" d="M383,752.7c0.6-4.1,3.9-9.6,11.5-9.6c8.4,0,10.4,5.8,10.4,9.6H383z M411.8,756.9c0.1-0.6,0.3-1.5,0.3-2.7
		c0-6-3.6-15.3-17-15.3c-12,0-19.3,7.7-19.3,17.5c0,9.8,7.6,16.3,20.2,16.3c6.5,0,11-1.1,13.7-2l-1.3-4.2c-2.8,0.9-6,1.7-11.4,1.7
		c-7.5,0-13.9-3.3-14.1-11.2H411.8z"/>
	<path class="st10" d="M455.1,753.2c0-0.9,0.3-1.7,0.4-2.4c1.5-4.5,6.3-7.2,11.4-7.2c8,0,12.2,5.6,12.2,12c0,7.4-4.7,12.4-12.5,12.4
		c-5.4,0-9.8-2.8-11.2-6.9c-0.2-0.7-0.3-1.4-0.3-2.1V753.2z M453.8,772l0.3-5.4h0.3c3.1,4.3,7.8,6.1,13.7,6.1
		c9.2,0,18.4-5.8,18.4-17.3c0.1-9.8-7.1-16.5-17.3-16.5c-6.6,0-11.4,2.3-14,6h-0.2v-20.3h-7.4v39.2c0,2.9-0.2,6.2-0.3,8.4H453.8z"/>
	<path class="st10" d="M504.5,752.7c0.6-4.1,3.9-9.6,11.5-9.6c8.4,0,10.4,5.8,10.4,9.6H504.5z M533.3,756.9c0.1-0.6,0.3-1.5,0.3-2.7
		c0-6-3.6-15.3-17-15.3c-12,0-19.3,7.7-19.3,17.5c0,9.8,7.6,16.3,20.2,16.3c6.5,0,11-1.1,13.7-2l-1.3-4.2c-2.8,0.9-6,1.7-11.4,1.7
		c-7.5,0-13.9-3.3-14.1-11.2H533.3z"/>
	<path class="st10" d="M548.7,731.9v7.8h-6.4v4.5h6.4v17.7c0,3.8,0.8,6.7,2.9,8.4c1.8,1.6,4.6,2.5,8.1,2.5c2.9,0,5.2-0.3,6.6-0.8
		l-0.3-4.4c-0.9,0.2-2.4,0.4-4.3,0.4c-4.2,0-5.6-2.3-5.6-6.3v-17.5h10.7v-4.5H556v-9.3L548.7,731.9z"/>
	<path class="st10" d="M581,731.9v7.8h-6.4v4.5h6.4v17.7c0,3.8,0.8,6.7,2.9,8.4c1.8,1.6,4.6,2.5,8.1,2.5c2.9,0,5.2-0.3,6.6-0.8
		l-0.3-4.4c-0.9,0.2-2.4,0.4-4.3,0.4c-4.2,0-5.6-2.3-5.6-6.3v-17.5H599v-4.5h-10.7v-9.3L581,731.9z"/>
	<path class="st10" d="M615.4,752.7c0.6-4.1,3.9-9.6,11.5-9.6c8.4,0,10.4,5.8,10.4,9.6H615.4z M644.2,756.9c0.1-0.6,0.3-1.5,0.3-2.7
		c0-6-3.6-15.3-17-15.3c-12,0-19.3,7.7-19.3,17.5c0,9.8,7.6,16.3,20.2,16.3c6.5,0,11-1.1,13.7-2l-1.3-4.2c-2.8,0.9-6,1.7-11.4,1.7
		c-7.5,0-13.9-3.3-14.1-11.2H644.2z"/>
	<path class="st10" d="M657.9,772h7.4v-17.3c0-1,0.2-1.9,0.3-2.7c1-4.4,4.8-7.6,10-7.6c1,0,1.8,0.1,2.5,0.2v-5.6
		c-0.7-0.1-1.3-0.2-2.1-0.2c-5,0-9.5,2.7-11.4,7.1h-0.3l-0.3-6.4h-6.5c0.3,3,0.3,6.3,0.3,10.1V772z"/>
</g>
<g class="st1">
	<defs>
		<rect id="SVGID_7_" width="899.7" height="899.7"/>
	</defs>
	<clipPath id="SVGID_8_" class="st2">
		<use xlink:href="#SVGID_7_"  style="overflow:visible;"/>
	</clipPath>
</g>
</svg>
