<?xml version="1.0" encoding="utf-8"?>
<!-- Generator: Adobe Illustrator 21.0.0, SVG Export Plug-In . SVG Version: 6.00 Build 0)  -->
<svg version="1.1" id="Layer_1" xmlns="http://www.w3.org/2000/svg" xmlns:xlink="http://www.w3.org/1999/xlink" x="0px" y="0px"
	 viewBox="0 0 1366 768" style="enable-background:new 0 0 1366 768;" xml:space="preserve">
<style type="text/css">
	.st0{clip-path:url(#SVGID_1_);fill:#FFBE00;}
</style>
<g>
	<defs>
		<rect id="SVGID_3_" x="-626.3" y="-237.3" width="2618.3" height="2618.3"/>
	</defs>
	<clipPath id="SVGID_1_">
		<use xlink:href="#SVGID_3_"  style="overflow:visible;"/>
	</clipPath>
	<path class="st0" d="M229.2,389.5c-8.5,41-70.9,19.7-86.6,19.7S56,377.7,36.4,310.8c-19.7-66.9,74.8-62.2,96.4-58.7
		C154.4,255.7,248.9,295,229.2,389.5"/>
	<path class="st0" d="M231.9,90.6c0,0-69.6-27.8-49.9,106c0,0,39.4,94.5,129.9,78.7c0,0,35.1-0.4,9.7-92.7
		C296.2,90.3,231.9,90.6,231.9,90.6"/>
	<path class="st0" d="M422.1,232.1c0,0-86.6-39.4-39.4-185c0,0,70.9-74.8,110.2,27.6c0,0,19.7,46.9,0,108.1
		C473.3,243.9,422.1,232.1,422.1,232.1"/>
	<path class="st0" d="M573.8,277.1c0,0-68.7-39,0-150.3c0,0,91.1-97.4,113.4,0c0,0,10.6,52-17,106.1
		C642.6,287.2,573.8,277.1,573.8,277.1"/>
	<path class="st0" d="M570.6,320.1c0,0-117-76.3-219.3-17.2c0,0-138.1,83.1-96.6,283.6c0,0,18.5,169,197.3,80.5
		c0,0,27.8-31.9,164.3-46.4c0,0,72.4-9.2,73-116.2C689.2,504.4,675.7,396.4,570.6,320.1 M563.8,480c-43.3,39.4-51.2,70.9-51.2,70.9
		c-15.7,31.5-59,23.6-86.6,7.9c-27.6-15.7-57.4-19.4-57.4-19.4c-53.5-11.6-52.8-59.3-52.8-59.3c-3.9-82.7,81.3-65.3,81.3-65.3
		c49.8,17.3,68.3-33.1,68.3-33.1c27.6-39.4,77.9-12.4,77.9-12.4C601.5,400.2,563.8,480,563.8,480"/>
	<path class="st0" d="M1115.1,414.7c0,0-55.3-100-165.6-56.7c-110.2,43.3-145.6,102.3-133.8,177.1c11.8,74.8,43.3,63,70.8,70.9
		c27.6,7.9,43.3-11.8,90.5,19.7c0,0,47.7,74.8,138,0C1115.1,625.7,1190.2,558,1115.1,414.7 M1090.5,503c-4.7,23-22.8,40-58.2,47.9
		c-35.4,7.9-39.4,15.7-39.4,15.7c-23.6,15.7-31.5,0-39.4-11.8c-7.9-11.8-31.5-31.5-31.5-31.5c-15.7-23.6-15.7-51.2-15.7-51.2
		c19.7-90.5,82.7-23.6,82.7-23.6c15.7,23.6,43.3,11.8,43.3,11.8C1079.5,452.5,1095.2,480,1090.5,503"/>
	<path class="st0" d="M1166.1,385.6c0,0,51-84.7,121.9-38.4c0,0,15.8,58.1-19.6,85.7C1268.4,432.8,1134.6,480,1166.1,385.6"/>
	<path class="st0" d="M1098.1,333.3c0,0-40.1-75.3,63.1-123.7c0,0,64.2-20.8,50.2,61.8C1211.5,271.5,1203.4,375.5,1098.1,333.3"/>
	<path class="st0" d="M1000.8,310.8c0,0-74.9-10.1-19.7-140.8c0,0,49-54.3,71.8,37.4C1052.8,207.3,1091.3,299,1000.8,310.8"/>
	<path class="st0" d="M916.8,347.1c0,0-89.6,19.4-103.2-114.8c0,0,27-94.2,103.2,0C916.8,232.4,954.8,316.6,916.8,347.1"/>
	<path class="st0" d="M535.8,379.3c0,0-46.4-24.9-71.8,11.4c0,0-17,46.5-62.9,30.5c0,0-78.6-16-74.9,60.2c0,0-0.6,44,48.7,54.6
		c0,0,27.5,3.4,52.9,17.9c25.4,14.5,65.3,21.8,79.8-7.3c0,0,7.3-29,47.2-65.3C554.8,481.3,589.4,407.8,535.8,379.3"/>
	<path class="st0" d="M1028.1,469.6c0,0-24.9,10.7-39.1-10.7c0,0-56.9-60.4-74.6,21.3c0,0,0,24.9,14.2,46.2c0,0,21.3,17.8,28.4,28.4
		c7.1,10.7,14.2,24.9,35.5,10.7c0,0,3.6-7.1,35.5-14.2c32-7.1,48.3-22.5,52.6-43.2C1085,487.4,1070.8,462.5,1028.1,469.6"/>
</g>
</svg>
